<svg width="360" height="208" viewBox="0 0 360 208" fill="none" xmlns="http://www.w3.org/2000/svg">
<g clip-path="url(#clip0_205_112)">
<path d="M363 -4.36023V199.721C324.004 161.189 250.844 165.311 184.006 180.324C167.868 183.95 152.082 188.212 137.224 192.667C129.499 194.983 122.013 197.354 114.87 199.714C101.368 204.172 91.2689 206.616 82.6038 207.7C82.1571 207.758 81.2604 207.815 80.1017 207.865C77.9959 207.956 75.0941 208.024 72.8069 207.993C71.7993 207.963 70.7918 207.913 69.7842 207.849C52.051 205.552 38.7712 199.677 28.8433 192.414C26.8853 190.983 25.0582 189.499 23.3554 187.977C2.96225 169.789 0 146.324 0 146.324V52.0093H0.167928V-4.36023H363Z" fill="#AED6DC"/>
<path d="M363 -3.93599V91.5979C363 91.6998 362.963 91.7983 362.896 91.8755C362.83 91.9527 362.738 92.0035 362.637 92.0187C359.698 92.4413 356.733 92.6529 353.764 92.6517C342.951 92.67 332.324 89.8367 322.949 84.4364C322.869 84.3894 322.776 84.3704 322.684 84.3823C322.592 84.3942 322.506 84.4363 322.44 84.5021C322.375 84.5679 322.333 84.6536 322.321 84.7459C322.309 84.8382 322.328 84.9318 322.375 85.0121C322.431 85.1095 322.446 85.2251 322.417 85.3337C322.388 85.4423 322.317 85.5349 322.22 85.5912L137.224 192.66C129.499 194.977 122.013 197.347 114.87 199.707C101.368 204.165 91.2689 206.609 82.6038 207.694C82.1571 207.751 81.2604 207.808 80.1017 207.859C77.9959 207.95 75.0941 208.017 72.8069 207.987C71.7993 207.956 70.7917 207.906 69.801 207.842H69.7674C52.3566 205.586 39.2381 199.879 29.3706 192.795C29.3137 192.753 29.2682 192.698 29.2381 192.634C29.208 192.57 29.1944 192.499 29.1984 192.429C29.2024 192.358 29.2239 192.29 29.261 192.23C29.2982 192.169 29.3497 192.12 29.4109 192.084L91.4503 156.176C93.4236 155.034 95.1532 153.513 96.5403 151.701C97.9274 149.889 98.9449 147.821 99.5346 145.614C100.124 143.408 100.275 141.107 99.9774 138.842C99.68 136.577 98.9406 134.394 97.8013 132.415L19.399 -3.72724C19.3621 -3.79071 19.3424 -3.86277 19.3418 -3.93626C19.3413 -4.00975 19.3599 -4.0821 19.3959 -4.14612C19.4319 -4.21013 19.484 -4.26358 19.547 -4.30115C19.61 -4.33871 19.6818 -4.35908 19.7551 -4.36023H81.613C81.6873 -4.3605 81.7603 -4.34101 81.8247 -4.30375C81.889 -4.26648 81.9423 -4.21278 81.9791 -4.14811L144.418 104.268C145.623 106.361 147.228 108.195 149.141 109.666C151.053 111.137 153.236 112.216 155.564 112.841C157.893 113.467 160.321 113.626 162.711 113.31C165.101 112.995 167.406 112.21 169.493 111.002L292.242 39.9589C292.314 39.9168 292.373 39.8539 292.409 39.7783C292.446 39.7027 292.459 39.6178 292.447 39.5347C292.015 36.5532 291.798 33.5443 291.799 30.5315C291.799 30.3227 291.799 30.114 291.799 29.9086C291.899 17.6766 295.62 5.74983 302.489 -4.36023L302.801 -4.81813C302.842 -4.87711 302.897 -4.9248 302.961 -4.95675C303.025 -4.9887 303.096 -5.00387 303.167 -5.00084C303.239 -4.99782 303.308 -4.97669 303.369 -4.93944C303.43 -4.90219 303.481 -4.85003 303.517 -4.78783L303.641 -4.57235C303.678 -4.50768 303.731 -4.45398 303.795 -4.41671C303.86 -4.37945 303.933 -4.35996 304.007 -4.36023H362.577C362.633 -4.36068 362.688 -4.35001 362.739 -4.32885C362.791 -4.30769 362.838 -4.27646 362.877 -4.23697C362.916 -4.19749 362.948 -4.15054 362.969 -4.09887C362.99 -4.0472 363 -3.99183 363 -3.93599Z" fill="#20236C"/>
<path d="M307.548 61.2194L55.9542 208.645" stroke="#F9F8FF" stroke-width="3" stroke-linecap="round" stroke-linejoin="round" stroke-dasharray="21 21"/>
<path d="M120.803 113.538L-25 -139" stroke="#F9F8FF" stroke-width="3" stroke-linecap="round" stroke-linejoin="round" stroke-dasharray="21 21"/>
<circle cx="358.5" cy="27.5" r="33.5" fill="#AED6DC"/>
</g>
<circle cx="363" cy="25" r="52" stroke="#F9F8FF" stroke-width="3" stroke-linecap="round" stroke-dasharray="18 18"/>
<g clip-path="url(#clip1_205_112)">
<path d="M275.707 30.2033C275.707 32.8113 275.895 35.4159 276.271 37.9968C276.281 38.0688 276.27 38.1422 276.238 38.2076C276.206 38.2731 276.156 38.3276 276.093 38.364L169.391 99.8607C167.577 100.907 165.573 101.586 163.496 101.859C161.419 102.133 159.307 101.995 157.283 101.453C155.259 100.912 153.362 99.978 151.699 98.7046C150.037 97.4312 148.642 95.8433 147.594 94.0317L93.3182 0.18362C93.2862 0.127644 93.2399 0.0811534 93.184 0.0488953C93.1281 0.0166372 93.0646 -0.000234355 93 2.45907e-06H285C279.029 8.75158 275.795 19.0757 275.707 29.6641C275.707 29.8419 275.707 30.0197 275.707 30.2033Z" fill="#95CDD6" fill-opacity="0.84"/>
</g>
<g clip-path="url(#clip2_205_112)">
<path d="M354 100.631V185.014C323.431 154.95 266.077 158.165 213.674 169.881C201.011 172.71 181.639 176.028 170 179.5L322.033 95.9476C322.082 95.9178 322.123 95.8761 322.151 95.8264C322.18 95.7767 322.195 95.7206 322.196 95.6633C322.196 95.6045 322.182 95.5464 322.155 95.4941C322.117 95.4319 322.101 95.3587 322.11 95.2863C322.118 95.2138 322.151 95.1464 322.203 95.0948C322.255 95.0432 322.322 95.0105 322.395 95.0019C322.467 94.9933 322.541 95.0094 322.603 95.0475C329.953 99.2616 338.286 101.472 346.763 101.457C349.089 101.457 351.412 101.292 353.715 100.963C353.795 100.953 353.869 100.913 353.922 100.852C353.974 100.79 354.002 100.712 354 100.631Z" fill="#99CFD7"/>
<rect x="238.72" y="128.399" width="15.2827" height="30.5654" rx="4" transform="rotate(-121.653 238.72 128.399)" fill="#FFA18E"/>
<rect x="239.092" y="110.204" width="8.98983" height="15.4124" transform="rotate(-31.4489 239.092 110.204)" fill="#D29083"/>
</g>
<g clip-path="url(#clip3_205_112)">
<path d="M84.9394 155.63L27.3139 190.242C27.2622 190.275 27.2186 190.32 27.1866 190.374C27.1546 190.427 27.1349 190.488 27.1292 190.551C27.1234 190.614 27.1317 190.677 27.1535 190.736C27.1753 190.795 27.2099 190.848 27.2546 190.891L26.7867 190.54C24.968 189.161 23.2711 187.73 21.6895 186.263C2.76071 168.74 0 146.119 0 146.119V55.2351H0.155972V0.906752H18.3486C18.2797 0.906156 18.2119 0.92455 18.1521 0.960059C18.0923 0.995569 18.0425 1.04693 18.008 1.10891C17.9734 1.1709 17.9553 1.24129 17.9554 1.31294C17.9555 1.38459 17.9738 1.45494 18.0086 1.51682L90.8382 132.73C91.8964 134.636 92.5832 136.741 92.8594 138.924C93.1357 141.106 92.9959 143.324 92.4481 145.451C91.9004 147.577 90.9553 149.571 89.667 151.317C88.3786 153.064 86.7722 154.529 84.9394 155.63Z" fill="#99CFD7"/>
</g>
<ellipse cx="354" cy="28.5" rx="21" ry="24.5" fill="#99CFD7"/>
<rect x="55" y="48.3954" width="15.2827" height="30.5654" rx="4" transform="rotate(-28.9406 55 48.3954)" fill="#FFA18E"/>
<rect x="73.1575" y="49.6285" width="8.98983" height="15.4124" transform="rotate(61.2633 73.1575 49.6285)" fill="#D29083"/>
<defs>
<clipPath id="clip0_205_112">
<rect width="363" height="213" fill="white" transform="translate(0 -5)"/>
</clipPath>
<clipPath id="clip1_205_112">
<rect width="192" height="102" fill="white" transform="translate(93)"/>
</clipPath>
<clipPath id="clip2_205_112">
<rect width="177" height="90" fill="white" transform="translate(177 95)"/>
</clipPath>
<clipPath id="clip3_205_112">
<rect width="93" height="190" fill="white" transform="translate(0 -5)"/>
</clipPath>
</defs>
</svg>
