<svg width="360" height="195" viewBox="0 0 360 195" fill="none" xmlns="http://www.w3.org/2000/svg">
<g filter="url(#filter0_d_253_121)">
<g clip-path="url(#clip0_253_121)">
<path d="M158.45 65.55C132.74 52.7701 97.45 53.2901 62.45 59.2701L94.08 16.55L158.45 65.55Z" fill="#95CDD6" fill-opacity="0.84"/>
<mask id="mask0_253_121" style="mask-type:luminance" maskUnits="userSpaceOnUse" x="-2" y="-32" width="363" height="214">
<path d="M361 -31.27H-2V181.73H361V-31.27Z" fill="white"/>
</mask>
<g mask="url(#mask0_253_121)">
<path d="M361 -30.63V173.45C322 134.92 248.85 139.04 182 154.05C165.86 157.68 150.07 161.94 135.22 166.4C127.49 168.71 120.01 171.08 112.86 173.4C99.36 177.86 89.26 180.3 80.6 181.4C80.15 181.46 79.25 181.51 78.09 181.56C75.99 181.65 73.09 181.72 70.8 181.69C69.8 181.69 68.8 181.61 67.8 181.55C50.06 179.25 36.8 173.38 26.86 166.11C24.9 164.677 23.07 163.2 21.37 161.68C9.17895 150.768 0.961392 136.113 -1.98997 120.02V25.74H-1.81999V-30.63H361Z" fill="#AFD6DC"/>
<path d="M356.5 34.73C375.002 34.73 390 19.7315 390 1.22998C390 -17.2716 375.002 -32.27 356.5 -32.27C337.998 -32.27 323 -17.2716 323 1.22998C323 19.7315 337.998 34.73 356.5 34.73Z" fill="#AFD6DC"/>
</g>
<mask id="mask1_253_121" style="mask-type:luminance" maskUnits="userSpaceOnUse" x="-1" y="-31" width="361" height="204">
<path d="M360 -30.27H-1V172.73H360V-30.27Z" fill="white"/>
</mask>
<g mask="url(#mask1_253_121)">
<path d="M360 115.27V172.74C353.133 166.006 345.212 160.44 336.55 156.26L257.7 96.8799C256.859 96.2465 255.901 95.7853 254.881 95.5228C253.862 95.2604 252.8 95.2018 251.758 95.3505C250.715 95.4991 249.713 95.8521 248.807 96.3891C247.901 96.9261 247.11 97.6366 246.48 98.4799L209.39 148.02C194.94 150.46 180.53 153.6 166.56 157.12C156.87 159.55 147.42 162.18 138.3 164.88L136.43 165.43L83.32 125.43C82.4792 124.798 81.5221 124.338 80.5034 124.077C79.4847 123.815 78.4244 123.757 77.3832 123.905C76.342 124.054 75.3403 124.406 74.4355 124.943C73.5307 125.479 72.7404 126.188 72.11 127.03L38.44 172.03C23.9081 164.834 12.1953 152.991 5.15999 138.38L34.74 98.8799C36.011 97.1845 36.5573 95.054 36.2592 92.9561C35.9611 90.8582 34.8429 88.9643 33.15 87.6899L-0.999985 61.9799V25.7999H-0.830002V3.45996L61.17 50.15C62.0105 50.7839 62.9678 51.2458 63.9871 51.509C65.0065 51.7723 66.0677 51.8317 67.1101 51.684C68.1524 51.5363 69.1554 51.1843 70.0614 50.6483C70.9675 50.1122 71.7587 49.4025 72.39 48.5599L131.39 -30.2701H189.92L109.8 76.7299C108.529 78.4254 107.983 80.5559 108.281 82.6537C108.579 84.7516 109.697 86.6456 111.39 87.9199L159.06 123.8C159.901 124.432 160.858 124.892 161.877 125.153C162.895 125.415 163.956 125.473 164.997 125.324C166.038 125.176 167.04 124.823 167.944 124.287C168.849 123.751 169.64 123.042 170.27 122.2L284.42 -30.3101H342.92L284.18 48.1299C282.909 49.8254 282.363 51.9559 282.661 54.0538C282.959 56.1517 284.077 58.0456 285.77 59.3199L360 115.27Z" fill="#2C296B"/>
</g>
<path d="M32 94.6899L4.92 130.69C2.57021 126.051 0.928661 121.086 0.0500031 115.96V70.6899L32 94.6899Z" fill="#95CDD6" fill-opacity="0.84"/>
<path d="M125 164.88C118.85 166.71 112.91 168.61 107.24 170.44C96.97 173.82 89.31 175.67 82.69 176.5C82.35 176.5 81.69 176.59 80.78 176.62C79.18 176.7 76.97 176.75 75.23 176.72C74.48 176.72 73.69 176.66 72.93 176.62C64.9639 175.682 57.2124 173.41 50 169.9L79.43 130.69L125 164.88Z" fill="#95CDD6" fill-opacity="0.84"/>
<path d="M121 -30.3101L65.5 43.6899L6.00002 -1.03003V-30.3101H121Z" fill="#95CDD6" fill-opacity="0.84"/>
<path d="M271 -22.3101L167.56 118.69L115 78.3099L188.83 -22.3101H271Z" fill="#95CDD6" fill-opacity="0.84"/>
<path d="M316 147.69C290.3 134.9 255 135.42 220 141.4L251.64 98.6899L316 147.69Z" fill="#95CDD6" fill-opacity="0.84"/>
<path d="M360 -23.3101V102.69L290 50.1299L345.14 -23.3101H360Z" fill="#95CDD6" fill-opacity="0.84"/>
<path d="M326.5 -50.5L154.92 185.29" stroke="#F8F7FB" stroke-width="3" stroke-linecap="round" stroke-linejoin="round" stroke-dasharray="21 21"/>
<path d="M171 -50.3101L16 161.48" stroke="#F8F7FB" stroke-width="3" stroke-linecap="round" stroke-linejoin="round" stroke-dasharray="21 21"/>
<path d="M187.75 176.98L93 100.69" stroke="#F8F7FB" stroke-width="3" stroke-linecap="round" stroke-linejoin="round" stroke-dasharray="21 21"/>
<path d="M279.692 65.4719L275.309 71.2844C273.979 73.0483 274.33 75.5564 276.094 76.8865L294.115 90.4758C295.879 91.8059 298.387 91.4543 299.717 89.6905L304.1 83.8779C305.43 82.1141 305.079 79.6059 303.315 78.2758L285.294 64.6866C283.53 63.3565 281.022 63.7081 279.692 65.4719Z" fill="#F7A08F"/>
<path d="M290.026 68.3255L280.703 80.5952L287.861 86.0343L297.184 73.7646L290.026 68.3255Z" fill="#D29082"/>
<path d="M107.642 48.3854L93.8745 66.2157C92.5269 67.961 92.8493 70.4682 94.5945 71.8157L100.346 76.2566C102.091 77.6041 104.598 77.2818 105.946 75.5366L119.713 57.7062C121.061 55.961 120.739 53.4538 118.993 52.1062L113.242 47.6654C111.497 46.3179 108.99 46.6402 107.642 48.3854Z" fill="#79CBBE"/>
<path d="M104.234 51.6528L98.7328 58.7631L110.921 68.1931L116.422 61.0828L104.234 51.6528Z" fill="#A0D8D3"/>
<path d="M372.92 158.26L276 84.6899" stroke="#F8F7FB" stroke-width="3" stroke-linecap="round" stroke-linejoin="round" stroke-dasharray="21 21"/>
<path d="M47.75 70.29L-47 -6" stroke="#F8F7FB" stroke-width="3" stroke-linecap="round" stroke-linejoin="round" stroke-dasharray="21 21"/>
</g>
</g>
<defs>
<filter id="filter0_d_253_121" x="-6" y="-52" width="400" height="246.79" filterUnits="userSpaceOnUse" color-interpolation-filters="sRGB">
<feFlood flood-opacity="0" result="BackgroundImageFix"/>
<feColorMatrix in="SourceAlpha" type="matrix" values="0 0 0 0 0 0 0 0 0 0 0 0 0 0 0 0 0 0 127 0" result="hardAlpha"/>
<feOffset dy="4"/>
<feGaussianBlur stdDeviation="2"/>
<feComposite in2="hardAlpha" operator="out"/>
<feColorMatrix type="matrix" values="0 0 0 0 0 0 0 0 0 0 0 0 0 0 0 0 0 0 0.25 0"/>
<feBlend mode="normal" in2="BackgroundImageFix" result="effect1_dropShadow_253_121"/>
<feBlend mode="normal" in="SourceGraphic" in2="effect1_dropShadow_253_121" result="shape"/>
</filter>
<clipPath id="clip0_253_121">
<rect width="392" height="238.79" fill="white" transform="translate(-2 -52)"/>
</clipPath>
</defs>
</svg>
