<svg width="360" height="123" viewBox="0 0 360 123" fill="none" xmlns="http://www.w3.org/2000/svg">
<path d="M-1.39475e-05 -89V114.734C39.6408 76.2682 114.01 80.3824 181.953 95.3701C198.358 98.9901 214.404 103.245 229.508 107.692C237.36 110.005 244.97 112.371 252.232 114.727C265.956 119.178 276.223 121.618 285.031 122.7C285.485 122.757 286.396 122.815 287.574 122.865C289.715 122.956 292.665 123.023 294.99 122.993C296.014 122.962 297.038 122.912 298.062 122.848C316.089 120.556 329.588 114.69 339.68 107.44C341.67 106.012 343.528 104.529 345.259 103.01C365.989 84.8528 369 61.4284 369 61.4284V-32.7263H368.829V-89L-1.39475e-05 -89Z" fill="#20236C"/>
</svg>
