<svg width="360" height="122" viewBox="0 0 360 122" fill="none" xmlns="http://www.w3.org/2000/svg">
<path d="M-1 212.361L-0.999982 8.27986C37.9963 46.8113 111.156 42.6901 177.995 27.6769C194.132 24.0507 209.918 19.7881 224.776 15.3336C232.501 13.0172 239.987 10.6469 247.13 8.28663C260.632 3.82879 270.731 1.38436 279.396 0.300209C279.843 0.242974 280.74 0.185738 281.898 0.135232C284.004 0.04432 286.906 -0.0230168 289.193 0.00728734C290.201 0.0375914 291.208 0.0880981 292.216 0.152063C309.949 2.44833 323.229 8.32367 333.157 15.5862C335.115 17.0171 336.942 18.502 338.645 20.0238C359.038 38.2121 362 61.6763 362 61.6763L362 155.991L361.832 155.991L361.832 212.361L-1 212.361Z" fill="#20236C"/>
</svg>
