<svg width="36" height="36" viewBox="0 0 36 36" fill="none" xmlns="http://www.w3.org/2000/svg">
<circle cx="18" cy="18" r="9" fill="#FFA18E"/>
<path d="M18 3C9.735 3 3 9.735 3 18C3 26.265 9.735 33 18 33C26.265 33 33 26.265 33 18C33 9.735 26.265 3 18 3ZM24 19.125H19.125V24C19.125 24.615 18.615 25.125 18 25.125C17.385 25.125 16.875 24.615 16.875 24V19.125H12C11.385 19.125 10.875 18.615 10.875 18C10.875 17.385 11.385 16.875 12 16.875H16.875V12C16.875 11.385 17.385 10.875 18 10.875C18.615 10.875 19.125 11.385 19.125 12V16.875H24C24.615 16.875 25.125 17.385 25.125 18C25.125 18.615 24.615 19.125 24 19.125Z" fill="#20236C"/>
<path d="M18 3C9.735 3 3 9.735 3 18C3 26.265 9.735 33 18 33C26.265 33 33 26.265 33 18C33 9.735 26.265 3 18 3ZM24 19.125H19.125V24C19.125 24.615 18.615 25.125 18 25.125C17.385 25.125 16.875 24.615 16.875 24V19.125H12C11.385 19.125 10.875 18.615 10.875 18C10.875 17.385 11.385 16.875 12 16.875H16.875V12C16.875 11.385 17.385 10.875 18 10.875C18.615 10.875 19.125 11.385 19.125 12V16.875H24C24.615 16.875 25.125 17.385 25.125 18C25.125 18.615 24.615 19.125 24 19.125Z" fill="#06A4FF" fill-opacity="0.09"/>
</svg>
