<svg width="37" height="35" viewBox="0 0 37 35" fill="none" xmlns="http://www.w3.org/2000/svg">
<path d="M19.3964 5.66626H12.5977C10.1981 5.66626 9.66489 6.86605 9.35828 8.34578L8.26514 13.5715H23.729L22.6358 8.34578C22.3292 6.86605 21.796 5.66626 19.3964 5.66626Z" stroke="#20236C" stroke-width="1.5" stroke-linecap="round" stroke-linejoin="round"/>
<path d="M25.6487 22.0899C25.7554 23.223 24.8489 24.1962 23.6891 24.1962H21.8761C20.8363 24.1962 20.6896 23.7563 20.503 23.1964L20.303 22.6231C20.0364 21.8366 19.8631 21.3033 18.4634 21.3033H13.5176C12.1312 21.3033 11.9179 21.9032 11.6779 22.6231L11.478 23.1964C11.2914 23.743 11.1447 24.1962 10.1049 24.1962H8.29191C7.13212 24.1962 6.22562 23.223 6.33226 22.0899L6.87884 16.1977C7.01214 14.7446 7.29208 13.5581 9.82495 13.5581H22.156C24.6889 13.5581 24.9688 14.7446 25.1021 16.1977L25.6487 22.0899Z" stroke="#20236C" stroke-width="1.5" stroke-linecap="round" stroke-linejoin="round"/>
<path d="M8.26514 10.6653H7.29199" stroke="#20236C" stroke-width="1.5" stroke-linecap="round" stroke-linejoin="round"/>
<path d="M24.7022 10.6653H23.729" stroke="#20236C" stroke-width="1.5" stroke-linecap="round" stroke-linejoin="round"/>
<path d="M10.1982 17.4375H13.0911" stroke="#20236C" stroke-width="1.5" stroke-linecap="round" stroke-linejoin="round"/>
<path d="M18.9033 17.4375H21.7961" stroke="#20236C" stroke-width="1.5" stroke-linecap="round" stroke-linejoin="round"/>
<path d="M15.9971 25.6626V26.9957" stroke="#20236C" stroke-width="1.5" stroke-linecap="round" stroke-linejoin="round"/>
<path d="M15.9971 30.9949V32.328" stroke="#20236C" stroke-width="1.5" stroke-linecap="round" stroke-linejoin="round"/>
<path d="M3.99935 26.9956L2.66626 32.328" stroke="#20236C" stroke-width="1.5" stroke-linecap="round" stroke-linejoin="round"/>
<path d="M27.9949 26.9956L29.328 32.328" stroke="#20236C" stroke-width="1.5" stroke-linecap="round" stroke-linejoin="round"/>
<path d="M35.856 6.47617H26.791C26.3264 6.47617 25.9412 5.98817 25.9412 5.39971C25.9412 4.81124 26.3264 4.32324 26.791 4.32324H35.856C36.3205 4.32324 36.7058 4.81124 36.7058 5.39971C36.7058 5.98817 36.3205 6.47617 35.856 6.47617Z" fill="#20236C"/>
<path d="M31.3233 10.7822C30.7348 10.7822 30.2468 10.397 30.2468 9.93239V0.867419C30.2468 0.402839 30.7348 0.0175781 31.3233 0.0175781C31.9118 0.0175781 32.3998 0.402839 32.3998 0.867419V9.93239C32.3998 10.397 31.9118 10.7822 31.3233 10.7822Z" fill="#20236C"/>
</svg>
