<svg width="25" height="24" viewBox="0 0 25 24" fill="none" xmlns="http://www.w3.org/2000/svg">
<path d="M22.5 7.42993V13.4299C22.5 14.9299 22 16.1799 21.12 17.0599C20.25 17.9299 19 18.4299 17.5 18.4299V20.5599C17.5 21.3599 16.61 21.84 15.95 21.4L11.5 18.4299H9.38C9.46 18.1299 9.5 17.8199 9.5 17.4999C9.5 16.4799 9.11 15.54 8.47 14.83C7.75 14.01 6.68 13.4999 5.5 13.4999C4.38 13.4999 3.36 13.96 2.63 14.71C2.54 14.31 2.5 13.8799 2.5 13.4299V7.42993C2.5 4.42993 4.5 2.42993 7.5 2.42993H17.5C20.5 2.42993 22.5 4.42993 22.5 7.42993Z" fill="#20236C" stroke="#20236C" stroke-width="1.5" stroke-miterlimit="10" stroke-linecap="round" stroke-linejoin="round"/>
<path d="M9.5 17.5C9.5 17.82 9.46 18.13 9.38 18.43C9.29 18.83 9.13001 19.22 8.92001 19.56C8.23001 20.72 6.96 21.5 5.5 21.5C4.47 21.5 3.54 21.11 2.84 20.47C2.54 20.21 2.27999 19.9 2.07999 19.56C1.70999 18.96 1.5 18.25 1.5 17.5C1.5 16.42 1.93 15.43 2.63 14.71C3.36 13.96 4.38 13.5 5.5 13.5C6.68 13.5 7.75 14.01 8.47 14.83C9.11 15.54 9.5 16.48 9.5 17.5Z" fill="#20236C" stroke="#20236C" stroke-width="1.5" stroke-miterlimit="10" stroke-linecap="round" stroke-linejoin="round"/>
<path d="M6.98999 17.48H4.01001" stroke="#F8F7FB" stroke-width="1.5" stroke-miterlimit="10" stroke-linecap="round" stroke-linejoin="round"/>
<path d="M5.5 16.02V19.01" stroke="#F8F7FB" stroke-width="1.5" stroke-miterlimit="10" stroke-linecap="round" stroke-linejoin="round"/>
<path d="M9 10.5H16" stroke="#F8F7FB" stroke-width="1.5" stroke-miterlimit="10" stroke-linecap="round" stroke-linejoin="round"/>
</svg>
