<svg width="24" height="25" viewBox="0 0 24 25" fill="none" xmlns="http://www.w3.org/2000/svg">
<path d="M9.56988 5.67988C9.75988 5.67988 9.94988 5.74988 10.0999 5.89988C10.3899 6.18988 10.3899 6.66988 10.0999 6.95988L4.55988 12.4999L10.0999 18.0399C10.3899 18.3299 10.3899 18.8099 10.0999 19.0999C9.80988 19.3899 9.32988 19.3899 9.03988 19.0999L2.96988 13.0299C2.67988 12.7399 2.67988 12.2599 2.96988 11.9699L9.03988 5.89988C9.18988 5.74988 9.37988 5.67988 9.56988 5.67988Z" fill="#20236C"/>
<path d="M9.56988 5.67988C9.75988 5.67988 9.94988 5.74988 10.0999 5.89988C10.3899 6.18988 10.3899 6.66988 10.0999 6.95988L4.55988 12.4999L10.0999 18.0399C10.3899 18.3299 10.3899 18.8099 10.0999 19.0999C9.80988 19.3899 9.32988 19.3899 9.03988 19.0999L2.96988 13.0299C2.67988 12.7399 2.67988 12.2599 2.96988 11.9699L9.03988 5.89988C9.18988 5.74988 9.37988 5.67988 9.56988 5.67988Z" fill="#06A4FF" fill-opacity="0.09"/>
<path d="M3.67 11.75L20.5 11.75C20.91 11.75 21.25 12.09 21.25 12.5C21.25 12.91 20.91 13.25 20.5 13.25L3.67 13.25C3.26 13.25 2.92 12.91 2.92 12.5C2.92 12.09 3.26 11.75 3.67 11.75Z" fill="#20236C"/>
<path d="M3.67 11.75L20.5 11.75C20.91 11.75 21.25 12.09 21.25 12.5C21.25 12.91 20.91 13.25 20.5 13.25L3.67 13.25C3.26 13.25 2.92 12.91 2.92 12.5C2.92 12.09 3.26 11.75 3.67 11.75Z" fill="#06A4FF" fill-opacity="0.09"/>
</svg>
