<svg width="19" height="19" viewBox="0 0 19 19" fill="none" xmlns="http://www.w3.org/2000/svg">
<path d="M5.32 17H13.18C15.25 17 16.075 15.7325 16.1725 14.1875L16.5625 7.9925C16.6675 6.3725 15.3775 5 13.75 5C13.2925 5 12.8725 4.7375 12.6625 4.3325L12.1225 3.245C11.7775 2.5625 10.8775 2 10.1125 2H8.395C7.6225 2 6.7225 2.5625 6.3775 3.245L5.8375 4.3325C5.6275 4.7375 5.2075 5 4.75 5C3.1225 5 1.8325 6.3725 1.9375 7.9925L2.3275 14.1875C2.4175 15.7325 3.25 17 5.32 17Z" fill="#72D2C2" stroke="#72D2C2" stroke-width="1.5" stroke-linecap="round" stroke-linejoin="round"/>
<path d="M8.125 6.5H10.375Z" fill="#72D2C2"/>
<path d="M8.125 6.5H10.375" stroke="#F8F7FB" stroke-width="1.5" stroke-linecap="round" stroke-linejoin="round"/>
<path d="M9.25 14C10.5925 14 11.6875 12.905 11.6875 11.5625C11.6875 10.22 10.5925 9.125 9.25 9.125C7.9075 9.125 6.8125 10.22 6.8125 11.5625C6.8125 12.905 7.9075 14 9.25 14Z" fill="#72D2C2" stroke="#F8F7FB" stroke-width="1.5" stroke-linecap="round" stroke-linejoin="round"/>
</svg>
