<svg width="19" height="18" viewBox="0 0 19 18" fill="none" xmlns="http://www.w3.org/2000/svg">
<path d="M18.3786 15.678C18.3724 15.672 18.3724 15.666 18.3662 15.66C18.0686 14.976 17.5043 14.436 16.7913 14.148L13.97 13.014C13.7405 12.924 13.5979 12.708 13.5979 12.474C13.5979 12.168 13.8398 11.916 14.1498 11.892C15.2473 11.802 16.1774 11.592 16.8781 11.388C15.4767 9.68406 15.0179 8.66404 14.8753 7.59005C14.683 6.23403 14.9993 5.71206 14.6024 4.30805C14.3978 3.58207 13.9886 2.14207 12.5996 1.08003C11.5455 0.288001 10.417 0.0660481 9.68536 0H9.67296H9.66056C8.93508 0.0600028 7.8004 0.288001 6.74628 1.08003C5.34492 2.14201 4.9419 3.58805 4.74348 4.30805C4.35285 5.71206 4.66287 6.24007 4.47066 7.59005C4.32184 8.66404 3.8568 9.68406 2.46786 11.388C3.16851 11.592 4.09241 11.802 5.19614 11.892C5.51237 11.916 5.74799 12.168 5.74799 12.474C5.74799 12.708 5.60538 12.924 5.37596 13.014L2.54229 14.148C1.8354 14.436 1.25874 14.976 0.967345 15.66C0.961144 15.666 0.961144 15.672 0.954944 15.678C0.520903 16.704 0.682116 17.628 0.768927 18H18.5587C18.6517 17.628 18.8129 16.704 18.3789 15.678H18.3786Z" fill="white"/>
</svg>
