<svg width="21" height="20" viewBox="0 0 21 20" fill="none" xmlns="http://www.w3.org/2000/svg">
<path d="M11.9293 2.01622L11.9301 2.01679L17.6898 6.04659C17.6899 6.04664 17.69 6.04669 17.69 6.04674C17.69 6.04675 17.6901 6.04677 17.6901 6.04679C17.9977 6.26221 18.3455 6.66292 18.6178 7.18442C18.8901 7.70606 19.02 8.22054 19.02 8.59774V15.3777C19.02 17.0993 17.6216 18.4977 15.9 18.4977H5.12C3.40264 18.4977 2 17.0935 2 15.3677V8.46774C2 8.12442 2.11616 7.6372 2.36572 7.13033C2.61488 6.62429 2.93321 6.22838 3.21255 6.01049L3.21287 6.01024L8.2206 2.10202C9.2112 1.33605 10.8984 1.29394 11.9293 2.01622ZM10.51 18.2477C11.7484 18.2477 12.76 17.2362 12.76 15.9977V12.9977C12.76 11.7593 11.7484 10.7477 10.51 10.7477C9.27157 10.7477 8.26 11.7593 8.26 12.9977V15.9977C8.26 17.2362 9.27158 18.2477 10.51 18.2477Z" fill="#20236C" stroke="#20236C" stroke-width="3"/>
</svg>
