<svg width="17" height="18" viewBox="0 0 17 18" fill="none" xmlns="http://www.w3.org/2000/svg">
<path d="M10.9362 10.8085V9.87779C11.6424 9.22211 12.0863 8.27029 12.0863 7.21277V7.14932L12.1065 7.17047C12.3486 7.17047 12.5302 6.64168 12.5302 5.986C12.5302 5.33031 12.3486 4.80152 12.1065 4.80152H12.0863V3.70165C12.0863 1.6923 10.5126 -0.0209813 8.59576 0.000194223C6.73953 0.0424969 5.22632 1.62887 5.22632 3.59597V4.80162H5.20615C4.96403 4.80162 4.78244 5.33041 4.78244 5.98609C4.78244 6.64178 4.96403 7.17057 5.20615 7.17057C5.20615 7.17057 5.22632 7.17057 5.22632 7.14942V7.21287C5.22632 8.27048 5.6702 9.22222 6.3764 9.87789V10.8085C6.3764 10.8085 3.5114 13.0506 1.75598 14.0024C1.06998 14.362 0.666504 15.1022 0.666504 15.8849C0.666504 17.0482 1.57445 18 2.68414 18H14.6489C15.7585 18 16.6665 17.0482 16.6665 15.8849C16.6665 15.0811 16.2428 14.362 15.577 14.0024C13.8015 13.0506 10.9365 10.8085 10.9365 10.8085L10.9362 10.8085Z" fill="#72D2C2"/>
</svg>
