<svg width="25" height="24" viewBox="0 0 25 24" fill="none" xmlns="http://www.w3.org/2000/svg">
<path d="M18.5 10.79V14.79C18.5 15.05 18.49 15.3 18.46 15.54C18.23 18.24 16.64 19.58 13.71 19.58H13.31C13.06 19.58 12.82 19.7 12.67 19.9L11.47 21.5C10.94 22.21 10.08 22.21 9.55002 21.5L8.35001 19.9C8.22001 19.73 7.93002 19.58 7.71002 19.58H7.31003C4.12003 19.58 2.52002 18.79 2.52002 14.79V10.79C2.52002 7.86001 3.87003 6.27001 6.56003 6.04001C6.80003 6.01001 7.05003 6 7.31003 6H13.71C16.9 6 18.5 7.60001 18.5 10.79Z" fill="#72D2C2" stroke="#72D2C2" stroke-width="1.5" stroke-miterlimit="10" stroke-linecap="round" stroke-linejoin="round"/>
<path d="M22.5001 6.79001V10.79C22.5001 13.73 21.1501 15.31 18.4601 15.54C18.4901 15.3 18.5001 15.05 18.5001 14.79V10.79C18.5001 7.60001 16.9001 6 13.7101 6H7.31006C7.05006 6 6.80006 6.01001 6.56006 6.04001C6.79006 3.35001 8.38006 2 11.3101 2H17.7101C20.9001 2 22.5001 3.60001 22.5001 6.79001Z" fill="#72D2C2" stroke="#72D2C2" stroke-width="1.5" stroke-miterlimit="10" stroke-linecap="round" stroke-linejoin="round"/>
<path fill-rule="evenodd" clip-rule="evenodd" d="M14.0155 13.25H14.0245Z" fill="#72D2C2"/>
<path d="M14.0155 13.25H14.0245" stroke="#F9F8FF" stroke-width="2" stroke-linecap="round" stroke-linejoin="round"/>
<path fill-rule="evenodd" clip-rule="evenodd" d="M10.5155 13.25H10.5245Z" fill="#72D2C2"/>
<path d="M10.5155 13.25H10.5245" stroke="#F9F8FF" stroke-width="2" stroke-linecap="round" stroke-linejoin="round"/>
<path fill-rule="evenodd" clip-rule="evenodd" d="M7.01552 13.25H7.02452Z" fill="#72D2C2"/>
<path d="M7.01552 13.25H7.02452" stroke="#F9F8FF" stroke-width="2" stroke-linecap="round" stroke-linejoin="round"/>
</svg>
