<svg width="35" height="33" viewBox="0 0 35 33" fill="none" xmlns="http://www.w3.org/2000/svg">
<path d="M27.724 19.9237L26.2905 17.6412C25.9895 17.1325 25.7171 16.17 25.7171 15.6063V12.1275C25.7171 8.89625 23.7388 6.105 20.8862 4.79875C20.1407 3.53375 18.7646 2.75 17.1877 2.75C15.6252 2.75 14.2203 3.56125 13.4749 4.84C10.6796 6.17375 8.74432 8.9375 8.74432 12.1275V15.6063C8.74432 16.17 8.47195 17.1325 8.17091 17.6275L6.72307 19.9237C6.14966 20.845 6.02065 21.8625 6.37902 22.7975C6.72307 23.7187 7.54017 24.4338 8.60097 24.7775C11.382 25.685 14.3063 26.125 17.2307 26.125C20.1551 26.125 23.0794 25.685 25.8604 24.7913C26.8639 24.475 27.638 23.7462 28.0107 22.7975C28.3834 21.8487 28.2831 20.8037 27.724 19.9237Z" fill="#72D2C2"/>
<path d="M27.724 19.9237L26.2905 17.6412C25.9895 17.1325 25.7171 16.17 25.7171 15.6063V12.1275C25.7171 8.89625 23.7388 6.105 20.8862 4.79875C20.1407 3.53375 18.7646 2.75 17.1877 2.75C15.6252 2.75 14.2203 3.56125 13.4749 4.84C10.6796 6.17375 8.74432 8.9375 8.74432 12.1275V15.6063C8.74432 16.17 8.47195 17.1325 8.17091 17.6275L6.72307 19.9237C6.14966 20.845 6.02065 21.8625 6.37902 22.7975C6.72307 23.7187 7.54017 24.4338 8.60097 24.7775C11.382 25.685 14.3063 26.125 17.2307 26.125C20.1551 26.125 23.0794 25.685 25.8604 24.7913C26.8639 24.475 27.638 23.7462 28.0107 22.7975C28.3834 21.8487 28.2831 20.8037 27.724 19.9237Z" fill="#06A4FF" fill-opacity="0.09"/>
<path d="M21.259 27.5138C20.6569 29.1088 19.0657 30.25 17.2022 30.25C16.0697 30.25 14.9516 29.81 14.1631 29.0263C13.7044 28.6138 13.3604 28.0637 13.1597 27.5C13.346 27.5275 13.5324 27.5412 13.7331 27.5687C14.0628 27.61 14.4068 27.6512 14.7509 27.6787C15.568 27.7475 16.3994 27.7887 17.2308 27.7887C18.0479 27.7887 18.865 27.7475 19.6678 27.6787C19.9688 27.6512 20.2699 27.6375 20.5566 27.5962C20.7859 27.5687 21.0153 27.5413 21.259 27.5138Z" fill="#72D2C2"/>
<path d="M21.259 27.5138C20.6569 29.1088 19.0657 30.25 17.2022 30.25C16.0697 30.25 14.9516 29.81 14.1631 29.0263C13.7044 28.6138 13.3604 28.0637 13.1597 27.5C13.346 27.5275 13.5324 27.5412 13.7331 27.5687C14.0628 27.61 14.4068 27.6512 14.7509 27.6787C15.568 27.7475 16.3994 27.7887 17.2308 27.7887C18.0479 27.7887 18.865 27.7475 19.6678 27.6787C19.9688 27.6512 20.2699 27.6375 20.5566 27.5962C20.7859 27.5687 21.0153 27.5413 21.259 27.5138Z" fill="#06A4FF" fill-opacity="0.09"/>
<ellipse cx="23.9787" cy="8" rx="3.12766" ry="3" fill="#FFA18E"/>
</svg>
