<svg width="35" height="33" viewBox="0 0 35 33" fill="none" xmlns="http://www.w3.org/2000/svg">
<path d="M28.0219 19.9237L26.5883 17.6412C26.2873 17.1325 26.0149 16.17 26.0149 15.6063V12.1275C26.0149 8.89625 24.0367 6.105 21.184 4.79875C20.4386 3.53375 19.0624 2.75 17.4855 2.75C15.923 2.75 14.5182 3.56125 13.7728 4.84C10.9774 6.17375 9.04217 8.9375 9.04217 12.1275V15.6063C9.04217 16.17 8.7698 17.1325 8.46876 17.6275L7.02092 19.9237C6.44751 20.845 6.3185 21.8625 6.67688 22.7975C7.02092 23.7187 7.83802 24.4338 8.89882 24.7775C11.6798 25.685 14.6042 26.125 17.5286 26.125C20.4529 26.125 23.3773 25.685 26.1583 24.7913C27.1617 24.475 27.9358 23.7462 28.3086 22.7975C28.6813 21.8487 28.5809 20.8037 28.0219 19.9237Z" fill="#72D2C2"/>
<path d="M28.0219 19.9237L26.5883 17.6412C26.2873 17.1325 26.0149 16.17 26.0149 15.6063V12.1275C26.0149 8.89625 24.0367 6.105 21.184 4.79875C20.4386 3.53375 19.0624 2.75 17.4855 2.75C15.923 2.75 14.5182 3.56125 13.7728 4.84C10.9774 6.17375 9.04217 8.9375 9.04217 12.1275V15.6063C9.04217 16.17 8.7698 17.1325 8.46876 17.6275L7.02092 19.9237C6.44751 20.845 6.3185 21.8625 6.67688 22.7975C7.02092 23.7187 7.83802 24.4338 8.89882 24.7775C11.6798 25.685 14.6042 26.125 17.5286 26.125C20.4529 26.125 23.3773 25.685 26.1583 24.7913C27.1617 24.475 27.9358 23.7462 28.3086 22.7975C28.6813 21.8487 28.5809 20.8037 28.0219 19.9237Z" fill="#06A4FF" fill-opacity="0.09"/>
<path d="M21.5569 27.5138C20.9548 29.1088 19.3636 30.25 17.5 30.25C16.3675 30.25 15.2494 29.81 14.461 29.0263C14.0023 28.6138 13.6582 28.0637 13.4575 27.5C13.6439 27.5275 13.8302 27.5412 14.0309 27.5687C14.3606 27.61 14.7047 27.6512 15.0487 27.6787C15.8658 27.7475 16.6973 27.7887 17.5287 27.7887C18.3458 27.7887 19.1629 27.7475 19.9657 27.6787C20.2667 27.6512 20.5677 27.6375 20.8544 27.5962C21.0838 27.5687 21.3132 27.5413 21.5569 27.5138Z" fill="#72D2C2"/>
<path d="M21.5569 27.5138C20.9548 29.1088 19.3636 30.25 17.5 30.25C16.3675 30.25 15.2494 29.81 14.461 29.0263C14.0023 28.6138 13.6582 28.0637 13.4575 27.5C13.6439 27.5275 13.8302 27.5412 14.0309 27.5687C14.3606 27.61 14.7047 27.6512 15.0487 27.6787C15.8658 27.7475 16.6973 27.7887 17.5287 27.7887C18.3458 27.7887 19.1629 27.7475 19.9657 27.6787C20.2667 27.6512 20.5677 27.6375 20.8544 27.5962C21.0838 27.5687 21.3132 27.5413 21.5569 27.5138Z" fill="#06A4FF" fill-opacity="0.09"/>
</svg>
