<svg width="25" height="24" viewBox="0 0 25 24" fill="none" xmlns="http://www.w3.org/2000/svg">
<path d="M2.59008 4.59988C3.39008 1.13988 8.60008 1.13988 9.39008 4.59988C9.86008 6.62988 8.57008 8.34988 7.45008 9.41988C6.63008 10.1999 5.34008 10.1899 4.52008 9.41988C3.41008 8.34988 2.12008 6.62988 2.59008 4.59988Z" fill="#72D2C2" stroke="#72D2C2" stroke-width="1.5"/>
<path d="M15.59 16.5999C16.39 13.1399 21.63 13.1399 22.43 16.5999C22.9 18.6299 21.61 20.3499 20.48 21.4199C19.66 22.1999 18.36 22.1899 17.54 21.4199C16.41 20.3499 15.12 18.6299 15.59 16.5999Z" fill="#72D2C2" stroke="#72D2C2" stroke-width="1.5"/>
<path d="M12.52 5H15.2C17.05 5 17.91 7.29 16.52 8.51L8.52996 15.5C7.13996 16.71 7.99996 19 9.83996 19H12.52" stroke="#72D2C2" stroke-width="1.5" stroke-linecap="round" stroke-linejoin="round"/>
<path d="M6.00624 5.5H6.01779" stroke="#F9F8FF" stroke-width="2" stroke-linecap="round" stroke-linejoin="round"/>
<path fill-rule="evenodd" clip-rule="evenodd" d="M19.0062 17.5H19.0178Z" fill="#72D2C2"/>
<path d="M19.0062 17.5H19.0178" stroke="#F9F8FF" stroke-width="2" stroke-linecap="round" stroke-linejoin="round"/>
</svg>
