<svg width="53" height="53" viewBox="0 0 53 53" fill="none" xmlns="http://www.w3.org/2000/svg">
<path d="M30.3203 7.75133L34.207 15.5247C34.737 16.6067 36.1503 17.6447 37.3428 17.8434L44.3874 19.0138C48.8924 19.7647 49.9524 23.033 46.7062 26.2572L41.2295 31.7338C40.302 32.6613 39.7941 34.4501 40.0812 35.7309L41.6491 42.5105C42.8858 47.8767 40.037 49.9526 35.2891 47.148L28.6862 43.2392C27.4937 42.5326 25.5283 42.5326 24.3137 43.2392L17.7108 47.148C12.9849 49.9526 10.1141 47.8547 11.3508 42.5105L12.9187 35.7309C13.2058 34.4501 12.6978 32.6613 11.7703 31.7338L6.29367 26.2572C3.0695 23.033 4.10742 19.7647 8.61242 19.0138L15.657 17.8434C16.8274 17.6447 18.2408 16.6067 18.7708 15.5247L22.6574 7.75133C24.7774 3.53341 28.2224 3.53341 30.3203 7.75133Z" fill="#20236C" stroke="#20236C" stroke-width="2" stroke-linecap="round" stroke-linejoin="round"/>
</svg>
