<svg width="9" height="9" viewBox="0 0 9 9" fill="none" xmlns="http://www.w3.org/2000/svg">
<path d="M5.14884 1.31624L5.80884 2.63624C5.89884 2.81999 6.13884 2.99624 6.34134 3.02999L7.53759 3.22874C8.30259 3.35624 8.48259 3.91124 7.93134 4.45874L7.00134 5.38874C6.84384 5.54624 6.75759 5.84999 6.80634 6.06749L7.07259 7.21874C7.28259 8.12999 6.79884 8.48249 5.99259 8.00624L4.87134 7.34249C4.66884 7.22249 4.33509 7.22249 4.12884 7.34249L3.00759 8.00624C2.20509 8.48249 1.71759 8.12624 1.92759 7.21874L2.19384 6.06749C2.24259 5.84999 2.15634 5.54624 1.99884 5.38874L1.06884 4.45874C0.521338 3.91124 0.697588 3.35624 1.46259 3.22874L2.65884 3.02999C2.85759 2.99624 3.09759 2.81999 3.18759 2.63624L3.84759 1.31624C4.20759 0.59999 4.79259 0.59999 5.14884 1.31624Z" fill="#FFA18E" stroke="#FFA18E" stroke-width="0.5" stroke-linecap="round" stroke-linejoin="round"/>
</svg>
