<svg width="20" height="20" viewBox="0 0 20 20" fill="none" xmlns="http://www.w3.org/2000/svg">
<path d="M10 10.0002V17.5002V10.0002ZM10 10.0002L7.91667 11.6668L10 10.0002ZM10 10.0002L12.0833 11.6668L10 10.0002ZM4.19501 7.59766C3.40685 7.79598 2.71824 8.27529 2.25855 8.94552C1.79887 9.61576 1.59974 10.4308 1.6986 11.2375C1.79745 12.0442 2.18748 12.787 2.7954 13.3264C3.40331 13.8658 4.18728 14.1647 5.00001 14.1668H5.83334" fill="#20236C"/>
<path d="M4.19501 7.59766C3.40685 7.79598 2.71824 8.27529 2.25855 8.94552C1.79887 9.61576 1.59974 10.4308 1.6986 11.2375C1.79745 12.0442 2.18748 12.787 2.7954 13.3264C3.40331 13.8658 4.18728 14.1647 5.00001 14.1668H5.83334M10 10.0002V17.5002V10.0002ZM10 10.0002L7.91667 11.6668L10 10.0002ZM10 10.0002L12.0833 11.6668L10 10.0002Z" stroke="#20236C" stroke-width="2" stroke-linecap="round" stroke-linejoin="round"/>
<path d="M13.1917 5.94842C12.9068 4.82057 12.2038 3.84321 11.2251 3.21447C10.2464 2.58574 9.06522 2.35267 7.92104 2.56251C6.77685 2.77235 5.75527 3.40941 5.06338 4.34454C4.37148 5.27967 4.06104 6.4429 4.19499 7.59842C4.19499 7.59842 4.32249 8.33342 4.58332 8.75009" fill="#20236C"/>
<path d="M13.1917 5.94842C12.9068 4.82057 12.2038 3.84321 11.2251 3.21447C10.2464 2.58574 9.06522 2.35267 7.92104 2.56251C6.77685 2.77235 5.75527 3.40941 5.06338 4.34454C4.37148 5.27967 4.06104 6.4429 4.19499 7.59842C4.19499 7.59842 4.32249 8.33342 4.58332 8.75009" stroke="#20236C" stroke-width="2" stroke-linecap="round" stroke-linejoin="round"/>
<path d="M14.1666 14.1668C14.755 14.1664 15.3366 14.0414 15.8732 13.8C16.4098 13.5587 16.8891 13.2064 17.2798 12.7664C17.6704 12.3264 17.9634 11.8087 18.1395 11.2473C18.3156 10.6859 18.3708 10.0936 18.3015 9.50928C18.2321 8.92501 18.0399 8.36205 17.7373 7.85745C17.4347 7.35284 17.0287 6.91804 16.546 6.58165C16.0633 6.24526 15.5148 6.01493 14.9366 5.9058C14.3585 5.79667 13.7638 5.81122 13.1916 5.9485L12.0833 6.25016" fill="#20236C"/>
<path d="M14.1666 14.1668C14.755 14.1664 15.3366 14.0414 15.8732 13.8C16.4098 13.5587 16.8891 13.2064 17.2798 12.7664C17.6704 12.3264 17.9634 11.8087 18.1395 11.2473C18.3156 10.6859 18.3708 10.0936 18.3015 9.50928C18.2321 8.92501 18.0399 8.36205 17.7373 7.85745C17.4347 7.35284 17.0287 6.91803 16.546 6.58165C16.0633 6.24526 15.5148 6.01493 14.9366 5.9058C14.3585 5.79667 13.7638 5.81122 13.1916 5.9485L12.0833 6.25016" stroke="#20236C" stroke-width="2" stroke-linecap="round" stroke-linejoin="round"/>
</svg>
