<svg width="25" height="24" viewBox="0 0 25 24" fill="none" xmlns="http://www.w3.org/2000/svg">
<path d="M9.27002 6.75C9.27002 4.95843 10.7284 3.5 12.52 3.5C14.3106 3.5 15.7684 4.95686 15.77 6.74711C15.7617 8.4976 14.4129 9.9026 12.6869 9.98882C12.5748 9.98032 12.4674 9.98105 12.3691 9.98711C10.5881 9.88503 9.27002 8.47459 9.27002 6.75Z" fill="#20236C" stroke="#20236C" stroke-width="3"/>
<path d="M8.27613 19.3446L8.27203 19.3418C7.31518 18.7039 6.97998 17.9851 6.97998 17.3799C6.97998 16.7733 7.31658 16.0452 8.28112 15.3986C9.39091 14.6651 10.9255 14.2549 12.5325 14.2549C14.1414 14.2549 15.6701 14.6661 16.7679 15.398C17.7132 16.0281 18.0527 16.7458 18.06 17.366C18.0578 17.9813 17.72 18.6991 16.7624 19.3455C15.6598 20.0853 14.1281 20.4999 12.52 20.4999C10.9111 20.4999 9.37879 20.0849 8.27613 19.3446Z" fill="#20236C" stroke="#20236C" stroke-width="3"/>
</svg>
